<svg width="0" height="0" class="hidden">
    <symbol xmlns="http://www.w3.org/2000/svg" viewBox="0 0 20 20" id="icon-facebook">
        <path d="M18.896 0H1.104C.494 0 0 .494 0 1.104v17.793C0 19.506.494 20 1.104 20h9.58v-7.745H8.076V9.237h2.606V7.01c0-2.583 1.578-3.99 3.883-3.99 1.104 0 2.052.082 2.329.119v2.7h-1.598c-1.254 0-1.496.597-1.496 1.47v1.928h2.989l-.39 3.018h-2.6V20h5.098c.608 0 1.102-.494 1.102-1.104V1.104C20 .494 19.506 0 18.896 0z"/>
    </symbol>
    <symbol xmlns="http://www.w3.org/2000/svg" viewBox="0 0 20 20" id="icon-pinterest">
        <path d="M10 0C4.478 0 0 4.477 0 10c0 4.237 2.636 7.855 6.356 9.312-.088-.791-.167-2.005.035-2.868.182-.78 1.172-4.97 1.172-4.97s-.299-.6-.299-1.486c0-1.39.806-2.428 1.81-2.428.852 0 1.264.64 1.264 1.408 0 .858-.545 2.14-.828 3.33-.236.995.5 1.807 1.48 1.807 1.778 0 3.144-1.874 3.144-4.58 0-2.393-1.72-4.068-4.177-4.068-2.845 0-4.515 2.135-4.515 4.34 0 .859.331 1.781.745 2.281a.3.3 0 01.069.288l-.278 1.133c-.044.183-.145.223-.335.134-1.249-.581-2.03-2.407-2.03-3.874 0-3.154 2.292-6.052 6.608-6.052 3.469 0 6.165 2.473 6.165 5.776 0 3.447-2.173 6.22-5.19 6.22-1.013 0-1.965-.525-2.291-1.148l-.623 2.378c-.226.869-.835 1.958-1.244 2.621.937.29 1.931.446 2.962.446 5.522 0 10-4.477 10-10S15.522 0 10 0z"/>
    </symbol>
    <symbol xmlns="http://www.w3.org/2000/svg" viewBox="0 0 21 20" id="icon-instagram">
        <path d="M10.333 1.802c2.67 0 2.987.01 4.042.059 2.71.123 3.976 1.409 4.1 4.099.048 1.054.057 1.37.057 4.04 0 2.672-.01 2.988-.058 4.042-.124 2.687-1.386 3.975-4.099 4.099-1.055.048-1.37.058-4.042.058-2.67 0-2.986-.01-4.04-.058-2.717-.124-3.976-1.416-4.1-4.1-.048-1.054-.058-1.37-.058-4.041 0-2.67.01-2.986.058-4.04.124-2.69 1.387-3.977 4.1-4.1 1.054-.048 1.37-.058 4.04-.058zm0-1.802C7.618 0 7.278.012 6.211.06 2.579.227.56 2.242.394 5.877.345 6.944.334 7.284.334 10s.011 3.057.06 4.123c.166 3.632 2.181 5.65 5.816 5.817 1.068.048 1.408.06 4.123.06 2.716 0 3.057-.012 4.124-.06 3.628-.167 5.651-2.182 5.816-5.817.049-1.066.06-1.407.06-4.123s-.011-3.056-.06-4.122C20.11 2.249 18.093.228 14.458.06 13.39.01 13.049 0 10.333 0zm0 4.865a5.135 5.135 0 100 10.27 5.135 5.135 0 000-10.27zm0 8.468a3.333 3.333 0 110-6.666 3.333 3.333 0 010 6.666zm5.339-9.87a1.2 1.2 0 10-.001 2.4 1.2 1.2 0 000-2.4z"/>
    </symbol>
    <symbol xmlns="http://www.w3.org/2000/svg" viewBox="0 0 21 18" id="icon-twitter">
        <path d="M20.667 2.797a8.192 8.192 0 01-2.357.646 4.11 4.11 0 001.804-2.27 8.22 8.22 0 01-2.606.996A4.096 4.096 0 0014.513.873c-2.649 0-4.595 2.472-3.997 5.038a11.648 11.648 0 01-8.457-4.287 4.109 4.109 0 001.27 5.478A4.086 4.086 0 011.47 6.59c-.045 1.901 1.317 3.68 3.29 4.075a4.113 4.113 0 01-1.853.07 4.106 4.106 0 003.834 2.85 8.25 8.25 0 01-6.075 1.7 11.616 11.616 0 006.29 1.843c7.618 0 11.922-6.434 11.662-12.205a8.354 8.354 0 002.048-2.124z"/>
    </symbol>
    <symbol xmlns="http://www.w3.org/2000/svg" viewBox="0 0 21 20" id="icon-youtube">
        <path d="M10.333 0c-5.522 0-10 4.478-10 10 0 5.523 4.478 10 10 10 5.523 0 10-4.477 10-10 0-5.522-4.477-10-10-10zm3.701 14.077c-1.752.12-5.653.12-7.402 0C4.735 13.947 4.514 13.018 4.5 10c.014-3.024.237-3.947 2.132-4.077 1.749-.12 5.651-.12 7.402 0 1.898.13 2.118 1.059 2.133 4.077-.015 3.024-.238 3.947-2.133 4.077zM8.667 8.048l4.097 1.949-4.097 1.955V8.048z"/>
    </symbol>
    <symbol xmlns="http://www.w3.org/2000/svg" viewBox="0 0 64 57" id="icon-bluesky">
        <path d="M13.873 3.805C21.21 9.332 29.103 20.537 32 26.55v15.882c0-.338-.13.044-.41.867-1.512 4.456-7.418 21.847-20.923 7.944-7.111-7.32-3.819-14.64 9.125-16.85-7.405 1.264-15.73-.825-18.014-9.015C1.12 23.022 0 8.51 0 6.55 0-3.268 8.579-.182 13.873 3.805ZM50.127 3.805C42.79 9.332 34.897 20.537 32 26.55v15.882c0-.338.13.044.41.867 1.512 4.456 7.418 21.847 20.923 7.944 7.111-7.32 3.819-14.64-9.125-16.85 7.405 1.264 15.73-.825 18.014-9.015C62.88 23.022 64 8.51 64 6.55c0-9.818-8.578-6.732-13.873-2.745Z"/>
    </symbol>
    <symbol xmlns="http://www.w3.org/2000/svg" viewBox="0 0 24 24" id="icon-github">
        <path d="M12 1C5.9225 1 1 5.9225 1 12C1 16.8675 4.14875 20.9787 8.52125 22.4362C9.07125 22.5325 9.2775 22.2025 9.2775 21.9137C9.2775 21.6525 9.26375 20.7862 9.26375 19.865C6.5 20.3737 5.785 19.1912 5.565 18.5725C5.44125 18.2562 4.905 17.28 4.4375 17.0187C4.0525 16.8125 3.5025 16.3037 4.42375 16.29C5.29 16.2762 5.90875 17.0875 6.115 17.4175C7.105 19.0812 8.68625 18.6137 9.31875 18.325C9.415 17.61 9.70375 17.1287 10.02 16.8537C7.5725 16.5787 5.015 15.63 5.015 11.4225C5.015 10.2262 5.44125 9.23625 6.1425 8.46625C6.0325 8.19125 5.6475 7.06375 6.2525 5.55125C6.2525 5.55125 7.17375 5.2625 9.2775 6.67875C10.1575 6.43125 11.0925 6.3075 12.0275 6.3075C12.9625 6.3075 13.8975 6.43125 14.7775 6.67875C16.8813 5.24875 17.8025 5.55125 17.8025 5.55125C18.4075 7.06375 18.0225 8.19125 17.9125 8.46625C18.6138 9.23625 19.04 10.2125 19.04 11.4225C19.04 15.6437 16.4688 16.5787 14.0213 16.8537C14.42 17.1975 14.7638 17.8575 14.7638 18.8887C14.7638 20.36 14.75 21.5425 14.75 21.9137C14.75 22.2025 14.9563 22.5462 15.5063 22.4362C19.8513 20.9787 23 16.8537 23 12C23 5.9225 18.0775 1 12 1Z"/>
    </symbol>
    <symbol xmlns="http://www.w3.org/2000/svg" viewBox="0 0 24 24" id="icon-linkedin">
        <path d="M20.5 2h-17A1.5 1.5 0 002 3.5v17A1.5 1.5 0 003.5 22h17a1.5 1.5 0 001.5-1.5v-17A1.5 1.5 0 0020.5 2zM8 19H5v-9h3zM6.5 8.25A1.75 1.75 0 118.3 6.5a1.78 1.78 0 01-1.8 1.75zM19 19h-3v-4.74c0-1.42-.6-1.93-1.38-1.93A1.74 1.74 0 0013 14.19a.66.66 0 000 .14V19h-3v-9h2.9v1.3a3.11 3.11 0 012.7-1.4c1.55 0 3.36.86 3.36 3.66z"/>
    </symbol>
</svg>
